{"title":"Ram Ratan 2017 720p DVD-Rip x264 AC3 5.1 Mafiaking M2Tv","magnet":"magnet:?xt=urn:btih:ef0c7e1c9c1fd0fa050d3b154f8b900a3f247cf3&dn=Ram+Ratan+2017+720p+DVD-Rip+x264+AC3+5.1+Mafiaking+M2Tv&tr=udp%3A%2F%2Ftracker.leechers-paradise.org%3A6969&tr=udp%3A%2F%2Fzer0day.ch%3A1337&tr=udp%3A%2F%2Fopen.demonii.com%3A1337&tr=udp%3A%2F%2Ftracker.coppersurfer.tk%3A6969&tr=udp%3A%2F%2Fexodus.desync.com%3A6969","uploader":"mafiaaking","categoryP":"video","categoryS":"movies","size":"1041170281","seeders":"6","leechers":"73","description":"Ram Ratan (2017) - 720p - DVD-Rip - Hindi - x264 - AC3 - 5.1 - Mafiaking - M2Tv\r\n <a href=\"\nhttp://www.imdb.com/title/tt7550816/\" rel=\"nofollow\" target=\"_NEW\">\nhttp://www.imdb.com/title/tt7550816/</a>\r\n\r\nRatings: 4.5/10\r\n\r\nGenere:      Romance \r\n\r\nGeneral\r\nComplete name               : Ram Ratan (2017) - 720p - DVD-Rip - Hindi - x264 - AC3 - 5.1 - Mafiaking - M2Tv.mkv\r\nFormat                      : Matroska\r\nFile size                   : 985 MiB\r\nDuration                    : 1 h 57 min\r\nOverall bit rate            : 1 176 kb/s\r\n\r\nVideo\r\nID                          : 1\r\nFormat                      : AVC\r\nCodec ID                    : V_MPEG4/ISO/AVC\r\nDuration                    : 1 h 57 min\r\nBit rate                    : 950 kb/s\r\nWidth                       : 1 280 pixels\r\nHeight                      : 544 pixels\r\nDisplay aspect ratio        : 2.35:1\r\nFrame rate mode             : Constant\r\nFrame rate                  : 29.970 (30000/1001) FPS\r\nStream size                 : 795 MiB (81%)\r\nTitle                       : Mafiaking\r\nLanguage                    : Hindi\r\nDefault                     : Yes\r\nForced                      : No\r\n\r\nAudio\r\nID                          : 2\r\nFormat                      : AC-3\r\nDuration                    : 1 h 57 min\r\nBit rate mode               : Constant\r\nBit rate                    : 224 kb/s\r\nChannel(s)                  : 6 channels\r\nStream size                 : 188 MiB (19%)\r\nTitle                       : Mafiaking\r\nLanguage                    : Hindi\r\nService kind                : Complete Main\r\nDefault                     : Yes\r\nForced                      : No\r\n\r\nScreens:-\r\n <a href=\"\nhttps://www.lookimg.com/image/opybJ\" rel=\"nofollow\" target=\"_NEW\">\nhttps://www.lookimg.com/image/opybJ</a> <a href=\"\nhttps://www.lookimg.com/image/o3P9D\" rel=\"nofollow\" target=\"_NEW\">\nhttps://www.lookimg.com/image/o3P9D</a> <a href=\"\nhttps://www.lookimg.com/image/oprG8\" rel=\"nofollow\" target=\"_NEW\">\nhttps://www.lookimg.com/image/oprG8</a> <a href=\"\nhttps://www.lookimg.com/image/o3Qfg\" rel=\"nofollow\" target=\"_NEW\">\nhttps://www.lookimg.com/image/o3Qfg</a> <a href=\"\nhttps://www.lookimg.com/image/o3UOA\" rel=\"nofollow\" target=\"_NEW\">\nhttps://www.lookimg.com/image/o3UOA</a> <a href=\"\nhttps://www.lookimg.com/image/o3ZX5\" rel=\"nofollow\" target=\"_NEW\">\nhttps://www.lookimg.com/image/o3ZX5</a> <a href=\"\nhttps://www.lookimg.com/image/o3vHm\" rel=\"nofollow\" target=\"_NEW\">\nhttps://www.lookimg.com/image/o3vHm</a> <a href=\"\nhttps://www.lookimg.com/image/o3xLR\" rel=\"nofollow\" target=\"_NEW\">\nhttps://www.lookimg.com/image/o3xLR</a> <a href=\"\nhttps://www.lookimg.com/image/o3zRe\" rel=\"nofollow\" target=\"_NEW\">\nhttps://www.lookimg.com/image/o3zRe</a> <a href=\"\nhttps://www.lookimg.com/image/o3AxU\" rel=\"nofollow\" target=\"_NEW\">\nhttps://www.lookimg.com/image/o3AxU</a> <a href=\"\nhttps://www.lookimg.com/image/o3BGn\" rel=\"nofollow\" target=\"_NEW\">\nhttps://www.lookimg.com/image/o3BGn</a> <a href=\"\nhttps://www.lookimg.com/image/o3KEq\" rel=\"nofollow\" target=\"_NEW\">\nhttps://www.lookimg.com/image/o3KEq</a> <a href=\"\nhttps://www.lookimg.com/image/o3kfW\" rel=\"nofollow\" target=\"_NEW\">\nhttps://www.lookimg.com/image/o3kfW</a> <a href=\"\nhttps://www.lookimg.com/image/o3gPQ\" rel=\"nofollow\" target=\"_NEW\">\nhttps://www.lookimg.com/image/o3gPQ</a> <a href=\"\nhttps://www.lookimg.com/image/o3ojh\" rel=\"nofollow\" target=\"_NEW\">\nhttps://www.lookimg.com/image/o3ojh</a>","last_updated":"2018-01-28T12:04:37.664Z","parsed":{"xt":"urn:btih:ef0c7e1c9c1fd0fa050d3b154f8b900a3f247cf3","dn":"Ram Ratan 2017 720p DVD-Rip x264 AC3 5.1 Mafiaking M2Tv","tr":["udp://exodus.desync.com:6969","udp://open.demonii.com:1337","udp://tracker.coppersurfer.tk:6969","udp://tracker.leechers-paradise.org:6969","udp://zer0day.ch:1337"],"infoHash":"ef0c7e1c9c1fd0fa050d3b154f8b900a3f247cf3","infoHashBuffer":{"type":"Buffer","data":[239,12,126,28,156,31,208,250,5,13,59,21,79,139,144,10,63,36,124,243]},"name":"Ram Ratan 2017 720p DVD-Rip x264 AC3 5.1 Mafiaking M2Tv","announce":["udp://exodus.desync.com:6969","udp://open.demonii.com:1337","udp://tracker.coppersurfer.tk:6969","udp://tracker.leechers-paradise.org:6969","udp://zer0day.ch:1337"],"urlList":[]}}